<svg width="22" height="22" viewBox="0 0 22 22" fill="none" xmlns="http://www.w3.org/2000/svg">
<circle cx="2.81818" cy="17.4549" r="1.81818" fill="#484848"/>
<mask id="path-2-inside-1_4542_1718" fill="white">
<ellipse cx="4.63636" cy="7.00036" rx="1.81818" ry="1.36364"/>
</mask>
<path d="M4.45454 7.00036C4.45454 6.60626 4.67218 6.40196 4.72201 6.36459C4.77122 6.32768 4.74754 6.36399 4.63636 6.36399V10.364C5.52933 10.364 6.41474 10.095 7.12201 9.56459C7.82988 9.03368 8.45454 8.14757 8.45454 7.00036H4.45454ZM4.63636 6.36399C4.52518 6.36399 4.5015 6.32768 4.55071 6.36459C4.60053 6.40196 4.81818 6.60626 4.81818 7.00036H0.818176C0.818176 8.14757 1.44283 9.03368 2.15071 9.56459C2.85797 10.095 3.74338 10.364 4.63636 10.364V6.36399ZM4.81818 7.00036C4.81818 7.39445 4.60053 7.59875 4.55071 7.63612C4.5015 7.67303 4.52518 7.63672 4.63636 7.63672V3.63672C3.74338 3.63672 2.85797 3.90567 2.15071 4.43612C1.44283 4.96703 0.818176 5.85314 0.818176 7.00036H4.81818ZM4.63636 7.63672C4.74754 7.63672 4.77122 7.67303 4.72201 7.63612C4.67218 7.59875 4.45454 7.39445 4.45454 7.00036H8.45454C8.45454 5.85314 7.82988 4.96703 7.12201 4.43612C6.41474 3.90567 5.52933 3.63672 4.63636 3.63672V7.63672Z" fill="#484848" mask="url(#path-2-inside-1_4542_1718)"/>
<mask id="path-4-inside-2_4542_1718" fill="white">
<ellipse cx="8.27273" cy="7.00036" rx="1.81818" ry="1.36364"/>
</mask>
<path d="M8.09091 7.00036C8.09091 6.60626 8.30855 6.40196 8.35837 6.36459C8.40758 6.32768 8.38391 6.36399 8.27273 6.36399V10.364C9.1657 10.364 10.0511 10.095 10.7584 9.56459C11.4663 9.03368 12.0909 8.14757 12.0909 7.00036H8.09091ZM8.27273 6.36399C8.16155 6.36399 8.13787 6.32768 8.18708 6.36459C8.2369 6.40196 8.45454 6.60626 8.45454 7.00036H4.45454C4.45454 8.14757 5.0792 9.03368 5.78708 9.56459C6.49434 10.095 7.37975 10.364 8.27273 10.364V6.36399ZM8.45454 7.00036C8.45454 7.39445 8.2369 7.59875 8.18708 7.63612C8.13787 7.67303 8.16155 7.63672 8.27273 7.63672V3.63672C7.37975 3.63672 6.49434 3.90567 5.78708 4.43612C5.0792 4.96703 4.45454 5.85314 4.45454 7.00036H8.45454ZM8.27273 7.63672C8.38391 7.63672 8.40758 7.67303 8.35837 7.63612C8.30855 7.59875 8.09091 7.39445 8.09091 7.00036H12.0909C12.0909 5.85314 11.4663 4.96703 10.7584 4.43612C10.0511 3.90567 9.1657 3.63672 8.27273 3.63672V7.63672Z" fill="#484848" mask="url(#path-4-inside-2_4542_1718)"/>
<mask id="path-6-inside-3_4542_1718" fill="white">
<ellipse cx="12.8182" cy="7.00036" rx="1.81818" ry="1.36364"/>
</mask>
<path d="M12.6364 7.00036C12.6364 6.60626 12.854 6.40196 12.9038 6.36459C12.953 6.32768 12.9294 6.36399 12.8182 6.36399V10.364C13.7112 10.364 14.5966 10.095 15.3038 9.56459C16.0117 9.03368 16.6364 8.14757 16.6364 7.00036H12.6364ZM12.8182 6.36399C12.707 6.36399 12.6833 6.32768 12.7325 6.36459C12.7824 6.40196 13 6.60626 13 7.00036H9C9 8.14757 9.62466 9.03368 10.3325 9.56459C11.0398 10.095 11.9252 10.364 12.8182 10.364V6.36399ZM13 7.00036C13 7.39445 12.7824 7.59875 12.7325 7.63612C12.6833 7.67303 12.707 7.63672 12.8182 7.63672V3.63672C11.9252 3.63672 11.0398 3.90567 10.3325 4.43612C9.62466 4.96703 9 5.85314 9 7.00036H13ZM12.8182 7.63672C12.9294 7.63672 12.953 7.67303 12.9038 7.63612C12.854 7.59875 12.6364 7.39445 12.6364 7.00036H16.6364C16.6364 5.85314 16.0117 4.96703 15.3038 4.43612C14.5966 3.90567 13.7112 3.63672 12.8182 3.63672V7.63672Z" fill="#484848" mask="url(#path-6-inside-3_4542_1718)"/>
<mask id="path-8-inside-4_4542_1718" fill="white">
<ellipse cx="17.3636" cy="7.00036" rx="1.81818" ry="1.36364"/>
</mask>
<path d="M17.1818 7.00036C17.1818 6.60626 17.3995 6.40196 17.4493 6.36459C17.4985 6.32768 17.4748 6.36399 17.3636 6.36399V10.364C18.2566 10.364 19.142 10.095 19.8493 9.56459C20.5572 9.03368 21.1818 8.14757 21.1818 7.00036H17.1818ZM17.3636 6.36399C17.2525 6.36399 17.2288 6.32768 17.278 6.36459C17.3278 6.40196 17.5455 6.60626 17.5455 7.00036H13.5455C13.5455 8.14757 14.1701 9.03368 14.878 9.56459C15.5853 10.095 16.4707 10.364 17.3636 10.364V6.36399ZM17.5455 7.00036C17.5455 7.39445 17.3278 7.59875 17.278 7.63612C17.2288 7.67303 17.2525 7.63672 17.3636 7.63672V3.63672C16.4707 3.63672 15.5853 3.90567 14.878 4.43612C14.1701 4.96703 13.5455 5.85314 13.5455 7.00036H17.5455ZM17.3636 7.63672C17.4748 7.63672 17.4985 7.67303 17.4493 7.63612C17.3995 7.59875 17.1818 7.39445 17.1818 7.00036H21.1818C21.1818 5.85314 20.5572 4.96703 19.8493 4.43612C19.142 3.90567 18.2566 3.63672 17.3636 3.63672V7.63672Z" fill="#484848" mask="url(#path-8-inside-4_4542_1718)"/>
<circle cx="8.27273" cy="17.4549" r="1.81818" fill="#484848"/>
<circle cx="12.8182" cy="17.4549" r="1.81818" fill="#484848"/>
<circle cx="17.3636" cy="17.4549" r="1.81818" fill="#484848"/>
<rect x="2" y="3" width="18" height="3.45455" rx="1" stroke="#484848" stroke-width="2"/>
<path d="M4.63636 7.45508L2.81818 16.546" stroke="#484848" stroke-width="2"/>
<line x1="8.36363" y1="7.45508" x2="8.36363" y2="16.546" stroke="#484848" stroke-width="2"/>
<line x1="12.9091" y1="7.45508" x2="12.9091" y2="16.546" stroke="#484848" stroke-width="2"/>
<line x1="17.4545" y1="7.45508" x2="17.4545" y2="16.546" stroke="#484848" stroke-width="2"/>
</svg>
